# xmcd
#
# Track frame offsets:
#	150
#	26899
#	48004
#	65879
#	86849
#	105399
#	127849
#	146424
#	161449
#	174229
#	191762
#	210649
#	221387
#	233429
#	249594
#	269387
#	287987
#	309537
#	329104
#	357987
#
# Disc length: 4777 seconds
#
# Revision: 0
# Processed by: cddbd v1.4PL0 Copyright (c) Steve Scherf et al.
# Submitted via: audiograbber 1.81.02
#
DISCID=2b12a714
DTITLE=ARETHA FRANKLIN - Greatest Hits CD 2
DYEAR=1900
DGENRE=
TTITLE0=ARETHA FRANKLIN and EURYTHMICS - Sisters are doin' it for themselves
TTITLE1=ARETHA FRANKLIN - A deeper love
TTITLE2=ARETHA FRANKLIN - What a fool believes
TTITLE3=ARETHA FRANKLIN - Who's zoomin' who?
TTITLE4=ARETHA FRANKLIN - Willing to forgive
TTITLE5=ARETHA FRANKLIN - Jumpin' jack flash
TTITLE6=ARETHA FRANKLIN - Freeway of love
TTITLE7=ARETHA FRANKLIN - Border song - holy moses
TTITLE8=ARETHA FRANKLIN - Oh no not my baby
TTITLE9=ARETHA FRANKLIN - Call me
TTITLE10=ARETHA FRANKLIN - Ain't no way
TTITLE11=ARETHA FRANKLIN - Since you've been gone - sweet sweet baby
TTITLE12=ARETHA FRANKLIN - Baby i love you
TTITLE13=ARETHA FRANKLIN - The long and winding road
TTITLE14=ARETHA FRANKLIN - Today i sing the blues
TTITLE15=ARETHA FRANKLIN and GEORGE BENSON - Love all the hurt away
TTITLE16=ARETHA FRANKLIN and WHITNEY HOUSTON - It isn't, it wasn't, it ain't neve
TTITLE16=r gonna be
TTITLE17=ARETHA FRANKLIN and ELTON JOHN - Through the storm
TTITLE18=ARETHA FRANKLIN - A rose is still a rose
TTITLE19=DUMMY TRACK - Not used
EXTD=
EXTT0=
EXTT1=
EXTT2=
EXTT3=
EXTT4=
EXTT5=
EXTT6=
EXTT7=
EXTT8=
EXTT9=
EXTT10=
EXTT11=
EXTT12=
EXTT13=
EXTT14=
EXTT15=
EXTT16=
EXTT17=
EXTT18=
EXTT19=
PLAYORDER=
